<?xml version="1.0" encoding="UTF-8"?><svg xmlns="http://www.w3.org/2000/svg" viewBox="0 0 4373.35 1728.63"><defs><style>.cls-1{fill:#604fd8;}.cls-2{fill:#387eb8;}.cls-3{fill:#fff;}.cls-4{fill:#646464;}.cls-5{fill:#ffc331;}</style></defs><g id="Layer_1"><path class="cls-1" d="M345.51.96c-1.82.09-8.04.77-13.88,1.34-76.76,7.37-154.57,42.78-211.99,96.38-27.28,25.46-47.95,50.63-66.14,80.68C26.03,224.82,10.05,271.24,2.2,328.57c-1.53,11.2-1.63,51.3-1.92,613.69l-.29,601.82h12.16c21.63,0,50.72-3.93,76.09-10.15,106.23-26.03,194.86-96.95,243.96-194.86,15.69-31.39,27.37-66.42,33.4-100.3,5.27-30.15,5.07-24.31,5.45-170.17l.39-135.14h408.58v610.91l17.99-.57c19.72-.58,33.31-2.2,55.7-6.51,95.33-18.66,181.76-76.85,235.83-158.78,32.83-49.67,49.77-95.23,59.63-159.83,1.53-10.34,1.72-45.94,1.91-614.84l.29-603.83-15.98.58c-78,2.87-153.42,31.3-216.59,81.64-15.31,12.26-42.21,38.77-54.17,53.51-40.48,49.96-66.8,106.71-78.29,169.11-5.74,31.11-5.65,28.43-6.03,175.15l-.39,134.76h-408.58V.29l-11.2.19c-6.22,0-12.83.29-14.65.48Z"/></g><g id="Layer_2"><g id="layer1"><path class="cls-2" d="M1295.78,962.4s0-93.44-205.57-93.44-205.57,93.44-205.57,93.44v93.44h205.57v37.38h-336.39s-93.44,0-93.44,205.57,93.44,205.57,93.44,205.57h93.44v-93.44c0-74.75,56.07-130.82,130.82-130.82h224.14c56.19,0,93.57-37.38,94.34-94.34.77-56.96-.77-223.37-.77-223.37ZM978.08,999.77c-20.64,0-37.38-16.73-37.38-37.38s16.73-37.38,37.38-37.38,37.38,16.73,37.38,37.38-16.73,37.38-37.38,37.38Z"/><path class="cls-5" d="M1426.6,1093.22h-93.44v93.44c0,74.75-56.07,130.82-130.82,130.82h-224.26c-56.07,0-93.44,37.38-93.44,93.44v224.26s0,93.44,205.57,93.44,205.57-93.44,205.57-93.44v-93.44h-205.57v-37.38h336.39s93.44,0,93.44-205.57-93.44-205.57-93.44-205.57ZM1202.34,1597.81c20.64,0,37.38,16.73,37.38,37.38s-16.73,37.38-37.38,37.38-37.38-16.73-37.38-37.38,16.73-37.38,37.38-37.38Z"/></g><path class="cls-3" d="M1577.09,1074.43v-138.35h-125.95v138.35h-105.13v-357.78h105.13v135.87h125.95v-135.87h105.13v357.78h-105.13Z"/><path class="cls-3" d="M1997.36,985.67c-8.43,59.01-60,95.71-135.13,95.71-89.75,0-143.06-53.31-143.06-142.32s53.8-145.29,139.84-145.29,139.59,54.05,139.59,137.85v27.52h-181.49v6.45c0,26.78,19.34,46.12,46.61,46.12,20.58,0,37.19-9.67,43.14-26.03h90.5ZM1818.59,904.09h85.29c-1.74-24.55-18.84-40.41-42.65-40.41s-40.66,16.86-42.65,40.41Z"/><path class="cls-3" d="M2032.57,1174.84v-75.62h19.59c28.76,0,41.65-5.21,41.65-17.36,0-2.23-.5-5.21-1.24-7.44l-89.75-273.73h112.81l41.65,200.83h1.98l41.41-200.83h107.36l-81.57,267.28c-23.31,76.12-68.68,106.86-157.69,106.86h-36.2Z"/><path class="cls-3" d="M2303.07,1026.33c0-28.51,23.06-51.57,51.57-51.57s51.57,23.06,51.57,51.57-23.06,51.57-51.57,51.57-51.57-23.06-51.57-51.57Z"/><path class="cls-3" d="M2432.5,895.42c0-118.02,68.18-184.96,177.53-184.96,94.46,0,165.87,61.49,166.12,150.25h-100.66c-2.48-40.66-29.01-67.69-65.46-67.69-43.14,0-70.42,38.18-70.42,102.15s27.03,102.9,70.66,102.9c36.2,0,62.48-26.53,65.7-67.94h100.66c-.5,89.26-70.17,150.5-166.62,150.5-109.59,0-177.53-67.19-177.53-185.21Z"/><path class="cls-3" d="M2797.97,994.84c0-52.56,40.41-81.08,113.56-85.54l60-3.72v-13.39c0-18.35-13.88-28.27-32.98-28.27-20.83,0-34.22,11.41-35.7,25.29h-90.75c2.48-58.51,52.07-95.46,131.9-95.46s126.7,37.93,126.7,93.47v187.19h-99.18v-36.7h-1.98c-14.38,26.78-47.6,40.66-79.34,40.66-49.84,0-92.23-34.22-92.23-83.56ZM2971.53,977.73v-17.85l-43.14,2.97c-19.34,1.49-30.25,10.66-30.25,24.05,0,14.88,12.15,23.55,30,23.55,22.56,0,43.39-12.64,43.39-32.73Z"/><path class="cls-3" d="M3133.43,874.34h-36.2v-71.16h36.2v-11.41c0-54.55,26.53-79.34,104.38-79.34,17.36,0,36.94,1.98,47.6,4.22v60.74c-4.96-.99-12.4-1.49-19.34-1.49-24.3,0-33.97,8.43-33.97,20.83v6.45h52.56v71.16h-49.59v200.09h-101.66v-200.09Z"/><path class="cls-3" d="M3584.69,985.67c-8.43,59.01-60,95.71-135.13,95.71-89.75,0-143.06-53.31-143.06-142.32s53.8-145.29,139.84-145.29,139.59,54.05,139.59,137.85v27.52h-181.49v6.45c0,26.78,19.34,46.12,46.61,46.12,20.58,0,37.19-9.67,43.14-26.03h90.5ZM3405.18,763.26l57.52-79.59h86.04l-65.7,79.59h-77.85ZM3405.92,904.09h85.29c-1.74-24.55-18.84-40.41-42.65-40.41s-40.66,16.86-42.65,40.41Z"/><path class="cls-3" d="M3622.87,1026.33c0-28.51,23.06-51.57,51.57-51.57s51.57,23.06,51.57,51.57-23.06,51.57-51.57,51.57-51.57-23.06-51.57-51.57Z"/><path id="path46" class="cls-4" d="M3998.64,924.91c0-84.35-24.05-127.65-72.15-130.02-19.14-.9-37.83,2.15-56.01,9.2-14.51,5.19-24.28,10.33-29.41,15.53v201.33c30.77,19.31,58.09,28.29,81.92,26.87,50.42-3.33,75.65-44.26,75.65-122.91ZM4057.98,928.41c0,42.85-10.05,78.42-30.26,106.7-22.53,32.01-53.75,48.5-93.66,49.4-30.09.96-61.09-8.47-92.99-28.23v182.98l-51.6-18.41v-406.15c8.47-10.39,19.36-19.31,32.58-26.87,30.71-17.9,68.03-27.1,111.96-27.55l.73.73c40.14-.51,71.08,15.98,92.82,49.4,20.27,30.66,30.43,69.95,30.43,118Z"/><path id="path48" class="cls-4" d="M4373.35,1048.5c0,57.47-5.76,97.28-17.28,119.41-11.57,22.13-33.59,39.8-66.11,52.96-26.37,10.39-54.88,16.03-85.48,16.99l-8.53-32.52c31.11-4.23,53.01-8.47,65.72-12.7,25.01-8.47,42.17-21.45,51.6-38.84,7.57-14.17,11.29-41.21,11.29-81.24v-13.44c-35.29,16.03-72.27,23.99-110.94,23.99-25.41,0-47.82-7.96-67.13-23.99-21.68-17.45-32.52-39.58-32.52-66.39v-214.76l51.6-17.67v216.18c0,23.09,7.45,40.88,22.36,53.35,14.9,12.48,34.21,18.46,57.87,18.01,23.66-.51,49.01-9.65,75.94-27.55v-252.2h51.6v280.42Z"/></g></svg>