<?xml version="1.0" encoding="UTF-8"?><svg xmlns="http://www.w3.org/2000/svg" viewBox="0 0 1520.04 1728.63"><defs><style>.cls-1{fill:#604fd8;}.cls-2{fill:#387eb8;}.cls-3{fill:#ffc331;}</style></defs><g id="Layer_1"><path class="cls-1" d="M345.51.96c-1.82.09-8.04.77-13.88,1.34-76.76,7.37-154.57,42.78-211.99,96.38-27.28,25.46-47.95,50.63-66.14,80.68C26.03,224.82,10.05,271.24,2.2,328.57c-1.53,11.2-1.63,51.3-1.92,613.69l-.29,601.82h12.16c21.63,0,50.72-3.93,76.09-10.15,106.23-26.03,194.86-96.95,243.96-194.86,15.69-31.39,27.37-66.42,33.4-100.3,5.27-30.15,5.07-24.31,5.45-170.17l.39-135.14h408.58v610.91l17.99-.57c19.72-.58,33.31-2.2,55.7-6.51,95.33-18.66,181.76-76.85,235.83-158.78,32.83-49.67,49.77-95.23,59.63-159.83,1.53-10.34,1.72-45.94,1.91-614.84l.29-603.83-15.98.58c-78,2.87-153.42,31.3-216.59,81.64-15.31,12.26-42.21,38.77-54.17,53.51-40.48,49.96-66.8,106.71-78.29,169.11-5.74,31.11-5.65,28.43-6.03,175.15l-.39,134.76h-408.58V.29l-11.2.19c-6.22,0-12.83.29-14.65.48Z"/></g><g id="Layer_2"><g id="layer1"><path class="cls-2" d="M1295.78,962.4s0-93.44-205.57-93.44-205.57,93.44-205.57,93.44v93.44h205.57v37.38h-336.39s-93.44,0-93.44,205.57,93.44,205.57,93.44,205.57h93.44v-93.44c0-74.75,56.07-130.82,130.82-130.82h224.14c56.19,0,93.57-37.38,94.34-94.34.77-56.96-.77-223.37-.77-223.37ZM978.08,999.77c-20.64,0-37.38-16.73-37.38-37.38s16.73-37.38,37.38-37.38,37.38,16.73,37.38,37.38-16.73,37.38-37.38,37.38Z"/><path class="cls-3" d="M1426.6,1093.22h-93.44v93.44c0,74.75-56.07,130.82-130.82,130.82h-224.26c-56.07,0-93.44,37.38-93.44,93.44v224.26s0,93.44,205.57,93.44,205.57-93.44,205.57-93.44v-93.44h-205.57v-37.38h336.39s93.44,0,93.44-205.57-93.44-205.57-93.44-205.57ZM1202.34,1597.81c20.64,0,37.38,16.73,37.38,37.38s-16.73,37.38-37.38,37.38-37.38-16.73-37.38-37.38,16.73-37.38,37.38-37.38Z"/></g></g></svg>